<?xml version="1.0" encoding="utf-8"?>
<!-- Generator: Adobe Illustrator 24.1.1, SVG Export Plug-In . SVG Version: 6.00 Build 0)  -->
<svg version="1.1" id="Layer_1" xmlns="http://www.w3.org/2000/svg" xmlns:xlink="http://www.w3.org/1999/xlink" x="0px" y="0px"
	 viewBox="0 0 512 512" style="enable-background:new 0 0 512 512;" xml:space="preserve" fill="#F7F7F7">
<g>
	<path d="M256,460.8c113.13,0,204.8-91.67,204.8-204.8c0-113.1-91.67-204.8-204.8-204.8C142.9,51.2,51.2,142.9,51.2,256
		C51.2,369.13,142.9,460.8,256,460.8z M256,512C114.63,512,0,397.4,0,256C0,114.63,114.63,0,256,0c141.4,0,256,114.63,256,256
		C512,397.4,397.4,512,256,512z"/>
	<path d="M293.5,133.27c-50.6,0-91.73,40.93-91.73,91.23c0,50.13,41.13,90.9,91.73,90.9c50.4,0,91.38-40.77,91.38-90.9
		C384.77,174.1,343.9,133.27,293.5,133.27 M130.15,376.23V133.27h44.88v242.95H130.15z"/>
</g>
</svg>
